<svg width="60" height="58" viewBox="0 0 60 58" fill="none" xmlns="http://www.w3.org/2000/svg">
<path d="M56.675 0H3.325C2.44518 0.00623648 1.60325 0.342205 0.9811 0.935323C0.358954 1.52844 0.00654171 2.33109 0 3.16986V54.0306C0.00654171 54.8694 0.358954 55.6721 0.9811 56.2652C1.60325 56.8583 2.44518 57.1943 3.325 57.2005H32.05V35.083H24.25V26.4314H32.05V20.0678C32.05 12.6794 36.775 8.65158 43.725 8.65158C46.05 8.65158 48.375 8.65158 50.7 8.98525V16.6835H45.925C42.15 16.6835 41.425 18.3995 41.425 20.902V26.4076H50.425L49.25 35.0591H41.425V57.2005H56.675C57.5548 57.1943 58.3968 56.8583 59.0189 56.2652C59.641 55.6721 59.9935 54.8694 60 54.0306V3.16986C59.9935 2.33109 59.641 1.52844 59.0189 0.935323C58.3968 0.342205 57.5548 0.00623648 56.675 0Z" fill="#F8F8F8"/>
</svg>
