<svg width="60" height="58" viewBox="0 0 60 58" fill="none" xmlns="http://www.w3.org/2000/svg">
<path d="M54 0H6C2.7 0 0 3.21753 0 7.15006V50.0504C0 53.983 2.7 57.2005 6 57.2005H54C57.3 57.2005 60 53.983 60 50.0504V7.15006C60 3.21753 57.3 0 54 0ZM52.8 15.1939L33.18 29.8158C31.23 31.2815 28.77 31.2815 26.82 29.8158L7.2 15.1939C6.89918 14.9926 6.63576 14.7208 6.42567 14.3947C6.21557 14.0686 6.06319 13.6952 5.97773 13.2969C5.89227 12.8986 5.87551 12.4838 5.92847 12.0776C5.98143 11.6713 6.10301 11.2821 6.28584 10.9335C6.46868 10.5849 6.70897 10.2841 6.99218 10.0494C7.27538 9.81466 7.59561 9.65084 7.93349 9.56785C8.27136 9.48487 8.61985 9.48444 8.95786 9.5666C9.29588 9.64876 9.61639 9.81179 9.9 10.0458L30 25.0252L50.1 10.0458C50.3836 9.81179 50.7041 9.64876 51.0421 9.5666C51.3802 9.48444 51.7286 9.48487 52.0665 9.56785C52.4044 9.65084 52.7246 9.81466 53.0078 10.0494C53.291 10.2841 53.5313 10.5849 53.7142 10.9335C53.897 11.2821 54.0186 11.6713 54.0715 12.0776C54.1245 12.4838 54.1077 12.8986 54.0223 13.2969C53.9368 13.6952 53.7844 14.0686 53.5743 14.3947C53.3642 14.7208 53.1008 14.9926 52.8 15.1939Z" fill="#F8F8F8"/>
</svg>
