<svg width="80" height="78" viewBox="0 0 80 78" fill="none" xmlns="http://www.w3.org/2000/svg">
<g filter="url(#filter0_d_6_52)">
<path d="M49.6 38.6003C49.6 40.4104 49.037 42.1798 47.9821 43.6849C46.9272 45.1899 45.4279 46.363 43.6738 47.0557C41.9196 47.7484 39.9894 47.9296 38.1271 47.5765C36.2649 47.2233 34.5544 46.3517 33.2118 45.0717C31.8692 43.7918 30.9549 42.1611 30.5845 40.3857C30.214 38.6104 30.4042 36.7702 31.1308 35.0979C31.8574 33.4256 33.0878 31.9962 34.6665 30.9906C36.2452 29.9849 38.1013 29.4482 40 29.4482C42.5436 29.4557 44.9809 30.4224 46.7795 32.1371C48.5781 33.8518 49.5921 36.1753 49.6 38.6003ZM70 26.0161V51.1844C70 55.4321 68.23 59.5059 65.0794 62.5095C61.9288 65.5131 57.6556 67.2005 53.2 67.2005H26.8C22.3444 67.2005 18.0712 65.5131 14.9206 62.5095C11.77 59.5059 10 55.4321 10 51.1844V26.0161C10 21.7684 11.77 17.6946 14.9206 14.691C18.0712 11.6874 22.3444 10 26.8 10H53.2C57.6556 10 61.9288 11.6874 65.0794 14.691C68.23 17.6946 70 21.7684 70 26.0161ZM54.4 38.6003C54.4 35.8851 53.5555 33.2309 51.9732 30.9733C50.3909 28.7157 48.1419 26.9562 45.5106 25.9171C42.8794 24.8781 39.984 24.6062 37.1907 25.1359C34.3974 25.6656 31.8315 26.9731 29.8177 28.893C27.8038 30.8129 26.4323 33.259 25.8767 35.922C25.3211 38.585 25.6062 41.3453 26.6961 43.8538C27.786 46.3623 29.6317 48.5063 31.9998 50.0148C34.3679 51.5232 37.152 52.3284 40 52.3284C43.8191 52.3284 47.4818 50.882 50.1823 48.3075C52.8829 45.733 54.4 42.2412 54.4 38.6003ZM59.2 23.7281C59.2 23.0493 58.9889 22.3858 58.5933 21.8214C58.1977 21.257 57.6355 20.8171 56.9777 20.5573C56.3198 20.2976 55.596 20.2296 54.8977 20.362C54.1993 20.4945 53.5579 20.8213 53.0544 21.3013C52.5509 21.7813 52.2081 22.3928 52.0692 23.0586C51.9303 23.7243 52.0016 24.4144 52.274 25.0415C52.5465 25.6686 53.0079 26.2046 53.5999 26.5818C54.192 26.9589 54.888 27.1602 55.6 27.1602C56.5548 27.1602 57.4705 26.7986 58.1456 26.1549C58.8207 25.5113 59.2 24.6384 59.2 23.7281Z" fill="#F8F8F8"/>
</g>
<defs>
<filter id="filter0_d_6_52" x="0" y="0" width="80" height="77.2006" filterUnits="userSpaceOnUse" color-interpolation-filters="sRGB">
<feFlood flood-opacity="0" result="BackgroundImageFix"/>
<feColorMatrix in="SourceAlpha" type="matrix" values="0 0 0 0 0 0 0 0 0 0 0 0 0 0 0 0 0 0 127 0" result="hardAlpha"/>
<feOffset/>
<feGaussianBlur stdDeviation="5"/>
<feComposite in2="hardAlpha" operator="out"/>
<feColorMatrix type="matrix" values="0 0 0 0 0 0 0 0 0 0 0 0 0 0 0 0 0 0 0.55 0"/>
<feBlend mode="normal" in2="BackgroundImageFix" result="effect1_dropShadow_6_52"/>
<feBlend mode="normal" in="SourceGraphic" in2="effect1_dropShadow_6_52" result="shape"/>
</filter>
</defs>
</svg>
