<svg width="53" height="42" viewBox="0 0 53 42" fill="none" xmlns="http://www.w3.org/2000/svg">
<path d="M26.5 0.448364C23.02 0.448364 19.574 0.983742 16.3589 2.02393C13.1438 3.06412 10.2224 4.58875 7.76167 6.51076C2.79196 10.3925 0 15.6572 0 21.1467C0 26.6362 2.79196 31.9009 7.76167 35.7826C10.2224 37.7046 13.1438 39.2293 16.3589 40.2694C19.574 41.3096 23.02 41.845 26.5 41.845C33.5282 41.845 40.2686 39.6643 45.2383 35.7826C50.208 31.9009 53 26.6362 53 21.1467C53 18.4285 52.3146 15.737 50.9828 13.2258C49.6511 10.7145 47.6991 8.43278 45.2383 6.51076C42.7776 4.58875 39.8562 3.06412 36.6411 2.02393C33.426 0.983742 29.98 0.448364 26.5 0.448364ZM10.6 10.7975H42.4V14.9372H10.6V10.7975ZM10.6 19.0769H42.4V23.2165H10.6V19.0769ZM10.6 27.3562H42.4V31.4958H10.6V27.3562Z" fill="#F8F8F8"/>
</svg>
